<svg id="logosandtypes_com" xmlns="http://www.w3.org/2000/svg" viewBox="0 0 150 150.2"><path d="M0 .2h150v150H0V.2z" fill="none"/><path d="M60.7 19c-.6-1.1-1.9-1.7-4.4-1.7v-2.8h28.8c1.3 0 2.5.8 3 2L150 123.1h-27.4c-.9.1-1.8-.3-2.2-1.1L60.7 19z" fill="#003c8f"/><path d="M58.8 113.9c0-3.4-2.7-6.1-6.1-6.1s-6.1 2.7-6.1 6.1 2.7 6.1 6.1 6.1c3.3 0 6.1-2.7 6.1-6.1zm31.6-7.6c-6.7 17.6-23.6 29.9-43.5 29.9C21.1 136.2 0 115 0 88.8c.1-26 21-47.1 46.8-47.2-4.4 7.8-34.6 60.3-35.8 61.9-4.2 7.3 11.4 5.8 25.8-19.3.3-.3 20-34.6 23.6-40.8 1.4.6 3 1.1 4.7 1.7-5.8 10.1-41.6 72.3-42.4 74.3-4.4 7.3 13 5.3 26.6-19.3.3-.3 5-8.7 10.8-19 3-4.7 7.2-7 14.4-7h16.9c1.7 4.7 2.5 9.6 2.5 14.5 0 .8-.3 1.4-.3 2.2-14.4 0-29.4-.6-34.9 11.7-3 5.8 3.9 2.8 10.3 2.5 6.1-.3 15.6.2 21.4 1.3z" fill="#00903f"/></svg>